<svg width="390" height="844" viewBox="0 0 390 844" fill="none" xmlns="http://www.w3.org/2000/svg">
  <defs>
    <filter id="shadow" x="-20%" y="-20%" width="140%" height="160%">
      <feDropShadow dx="0" dy="12" stdDeviation="14" flood-color="#0F172A" flood-opacity="0.16"/>
    </filter>
  </defs>
  <!-- Transparent MOB-3 overlay. Composite on immutable BEFORE run 33906860335 / artifact 9949854305. -->
  <rect width="390" height="844" fill="#0F172A" fill-opacity="0.16"/>
  <g filter="url(#shadow)">
    <rect x="16" y="360" width="358" height="306" rx="28" fill="white" fill-opacity="0.97" stroke="#D7E2EF"/>
    <rect x="161" y="373" width="68" height="5" rx="2.5" fill="#C6D2E0"/>
    <text x="32" y="405" fill="#0F172A" font-family="Inter, system-ui, sans-serif" font-size="19" font-weight="900">Action rapide</text>
    <text x="32" y="428" fill="#64748B" font-family="Inter, system-ui, sans-serif" font-size="10" font-weight="700">Que voulez-vous faire ?</text>

    <rect x="32" y="438" width="153" height="65" rx="18" fill="#003380" fill-opacity="0.08" stroke="#B8CDE8"/>
    <circle cx="54" cy="459" r="12" fill="#003380" fill-opacity="0.10"/>
    <path d="M48 459H60M54 453V465" stroke="#003380" stroke-width="2" stroke-linecap="round"/>
    <text x="46" y="490" fill="#003380" font-family="Inter, system-ui, sans-serif" font-size="10" font-weight="900">Nouveau RDV</text>

    <rect x="205" y="438" width="153" height="65" rx="18" fill="#003380" fill-opacity="0.08" stroke="#B8CDE8"/>
    <circle cx="227" cy="459" r="12" fill="#003380" fill-opacity="0.10"/>
    <path d="M221 459H233M227 453V465" stroke="#003380" stroke-width="2" stroke-linecap="round"/>
    <text x="219" y="490" fill="#003380" font-family="Inter, system-ui, sans-serif" font-size="10" font-weight="900">Nouveau patient</text>

    <rect x="32" y="514" width="153" height="65" rx="18" fill="white" stroke="#D7E2EF"/>
    <circle cx="54" cy="535" r="12" fill="#003380" fill-opacity="0.08"/>
    <path d="M47 532H61L64 535V544H44V535L47 532Z" stroke="#003380" stroke-width="1.7" stroke-linejoin="round"/>
    <circle cx="54" cy="538" r="3" stroke="#003380" stroke-width="1.7"/>
    <text x="46" y="566" fill="#0F172A" font-family="Inter, system-ui, sans-serif" font-size="10" font-weight="900">Photo clinique</text>

    <rect x="205" y="514" width="153" height="65" rx="18" fill="white" stroke="#D7E2EF"/>
    <circle cx="227" cy="535" r="12" fill="#003380" fill-opacity="0.08"/>
    <path d="M220 528V533M220 538V543M234 528V533M234 538V543M222 526H226M229 526H233M222 545H226M229 545H233" stroke="#003380" stroke-width="1.7" stroke-linecap="round"/>
    <text x="219" y="566" fill="#0F172A" font-family="Inter, system-ui, sans-serif" font-size="10" font-weight="900">Scanner document</text>

    <rect x="32" y="590" width="326" height="56" rx="18" fill="#003380"/>
    <circle cx="62" cy="618" r="16" fill="white" fill-opacity="0.14"/>
    <text x="51" y="622" fill="white" font-family="Inter, system-ui, sans-serif" font-size="9" font-weight="900">DH</text>
    <text x="90" y="614" fill="white" font-family="Inter, system-ui, sans-serif" font-size="11" font-weight="900">Encaisser rapidement</text>
    <text x="90" y="632" fill="#D7E6FA" font-family="Inter, system-ui, sans-serif" font-size="8" font-weight="700">Selon permission financière</text>
  </g>

  <!-- Same FAB coordinates as real Agenda BEFORE: center ≈ 338,688. Open state becomes X. -->
  <circle cx="338" cy="688" r="28" fill="#003380" stroke="white" stroke-width="2"/>
  <path d="M328 678L348 698M348 678L328 698" stroke="white" stroke-width="3" stroke-linecap="round"/>
</svg>
