<svg xmlns="http://www.w3.org/2000/svg" width="1200" height="760" viewBox="0 0 1200 760">
  <rect width="1200" height="760" fill="#eef3f8"/>
  <text x="48" y="52" font-family="Arial,sans-serif" font-size="26" font-weight="700" fill="#0b2f6b">M4 final — backend cabinet inaccessible — cible visuelle</text>
  <text x="48" y="82" font-family="Arial,sans-serif" font-size="14" fill="#64748b">Même composant, même hiérarchie, détail utilisateur au lieu de l'erreur technique brute.</text>

  <text x="130" y="132" font-family="Arial,sans-serif" font-size="14" font-weight="700" fill="#64748b">390 × 844</text>
  <rect x="90" y="150" width="300" height="550" rx="36" fill="#f8fafc" stroke="#cbd5e1" stroke-width="2"/>
  <rect x="115" y="310" width="250" height="235" rx="28" fill="#ffffff" stroke="#fecdd3"/>
  <circle cx="240" cy="354" r="24" fill="#fff1f2"/>
  <text x="231" y="363" font-family="Arial,sans-serif" font-size="24" fill="#e11d48">!</text>
  <text x="166" y="404" font-family="Arial,sans-serif" font-size="20" font-weight="700" fill="#0f172a">Contexte indisponible</text>
  <text x="137" y="438" font-family="Arial,sans-serif" font-size="12" fill="#64748b">Serveur du cabinet inaccessible.</text>
  <text x="133" y="458" font-family="Arial,sans-serif" font-size="12" fill="#64748b">Vérifiez que le poste cabinet est démarré</text>
  <text x="149" y="478" font-family="Arial,sans-serif" font-size="12" fill="#64748b">et accessible sur ce réseau, puis réessayez.</text>
  <rect x="135" y="495" width="210" height="44" rx="14" fill="#ffffff" stroke="#e2e8f0"/>
  <text x="205" y="523" font-family="Arial,sans-serif" font-size="11" font-weight="700" fill="#334155">↻ RÉESSAYER</text>
  <rect x="135" y="551" width="210" height="50" rx="15" fill="#0b4ca3"/>
  <text x="186" y="582" font-family="Arial,sans-serif" font-size="11" font-weight="700" fill="#ffffff">RETOUR AU MOBILE</text>

  <text x="690" y="132" font-family="Arial,sans-serif" font-size="14" font-weight="700" fill="#64748b">768 × 1024</text>
  <rect x="560" y="150" width="550" height="550" rx="36" fill="#f8fafc" stroke="#cbd5e1" stroke-width="2"/>
  <rect x="680" y="300" width="310" height="250" rx="28" fill="#ffffff" stroke="#fecdd3"/>
  <circle cx="835" cy="345" r="24" fill="#fff1f2"/>
  <text x="826" y="354" font-family="Arial,sans-serif" font-size="24" fill="#e11d48">!</text>
  <text x="760" y="397" font-family="Arial,sans-serif" font-size="20" font-weight="700" fill="#0f172a">Contexte indisponible</text>
  <text x="731" y="432" font-family="Arial,sans-serif" font-size="12" fill="#64748b">Serveur du cabinet inaccessible. Vérifiez que le poste cabinet</text>
  <text x="748" y="452" font-family="Arial,sans-serif" font-size="12" fill="#64748b">est démarré et accessible sur ce réseau, puis réessayez.</text>
  <rect x="710" y="478" width="250" height="44" rx="14" fill="#ffffff" stroke="#e2e8f0"/>
  <text x="797" y="506" font-family="Arial,sans-serif" font-size="11" font-weight="700" fill="#334155">↻ RÉESSAYER</text>
  <rect x="710" y="534" width="250" height="50" rx="15" fill="#0b4ca3"/>
  <text x="780" y="565" font-family="Arial,sans-serif" font-size="11" font-weight="700" fill="#ffffff">RETOUR AU MOBILE</text>

  <text x="48" y="730" font-family="Arial,sans-serif" font-size="13" fill="#64748b">Critère : aucune chaîne technique brute affichée. Aucun changement de navigation, permission ou protocole.</text>
</svg>
